Coordinates
version=1
nRows=24
nColumns=24
inDegrees=yes

Units are S.I. units (second, meters, Newtons, ...)
Angles are in degrees.

endheader
time	pelvis_tilt	pelvis_list	pelvis_rotation	pelvis_tx	pelvis_ty	pelvis_tz	hip_flexion_r	hip_adduction_r	hip_rotation_r	knee_angle_r	ankle_angle_r	subtalar_angle_r	mtp_angle_r	hip_flexion_l	hip_adduction_l	hip_rotation_l	knee_angle_l	ankle_angle_l	subtalar_angle_l	mtp_angle_l	lumbar_extension	lumbar_bending	lumbar_rotation
      2.65500000	     12.75274336	     -0.62590007	      6.70928952	      0.95721467	      0.90986651	      0.25747195	     12.66261390	      2.77389688	     -4.51014316	    -27.02824372	     12.43807799	     -0.70078271	     29.66475703	    -15.39131179	     -4.47622177	     -0.81087967	    -54.20623925	     10.94871371	      5.60988821	     48.20533744	    -27.32938217	      6.41038770	     -3.82052761
      2.66000000	     12.20464995	     -1.22951905	      7.14544348	      0.96318247	      0.90925045	      0.25718778	     12.91440274	      3.43252812	     -4.62956156	    -27.02021201	     12.75082654	     -1.09226128	     29.59504384	    -13.35864237	     -5.00288365	     -0.00805301	    -56.73938067	     11.45420686	      4.90904104	     47.63254808	    -26.72428510	      7.20939933	     -3.78106975
      2.66500000	     11.77556405	     -1.73712400	      7.48648474	      0.96910346	      0.90896660	      0.25701614	     13.02254626	      4.02431915	     -4.63793545	    -26.98282480	     12.96682278	     -1.75840188	     29.48966403	    -11.52296850	     -5.36519397	      0.74594257	    -59.04930862	     12.11991024	      4.44949106	     47.47091120	    -26.26220429	      7.88350660	     -3.71424528
      2.67000000	     11.41275892	     -2.21393328	      7.77808390	      0.97518760	      0.90892010	      0.25679542	     13.02627741	      4.55714700	     -4.67501568	    -26.91232883	     13.26676792	     -2.18758991	     29.30160108	     -9.83367857	     -5.66579629	      1.40876329	    -61.12742163	     12.60702826	      3.80927954	     47.25647920	    -25.86170028	      8.52118575	     -3.62887348
      2.67500000	     11.09245662	     -2.63249063	      8.05462545	      0.98126024	      0.90906768	      0.25659210	     12.97460271	      5.01950916	     -4.75711023	    -26.83285721	     13.57712422	     -2.46306863	     28.87304234	     -8.20006114	     -5.90891284	      2.06230917	    -63.06799162	     13.00113757	      3.40198441	     47.02540839	    -25.51632545	      9.09944620	     -3.55577920
      2.68000000	     10.78059253	     -2.99779834	      8.27457319	      0.98743053	      0.90933926	      0.25658591	     12.86432084	      5.44604545	     -4.78559963	    -26.67818038	     13.99446773	     -2.46948287	     28.12919217	     -6.59022351	     -6.13004827	      2.52131501	    -64.86449832	     13.27470065	      2.70701982	     46.14002843	    -25.17431851	      9.57880915	     -3.47939933
      2.68500000	     10.68857697	     -3.23871312	      8.52849906	      0.99343473	      0.91005051	      0.25666802	     12.47640420	      5.78358432	     -4.83952896	    -26.46312588	     14.20709343	     -2.63197605	     27.70714089	     -5.21951077	     -6.28091932	      2.95883974	    -66.54130408	     13.46583896	      2.07361475	     46.06952211	    -25.09394755	      9.94762075	     -3.52637886
      2.69000000	     10.34513376	     -3.57438933	      8.72832963	      0.99949283	      0.91042545	      0.25666050	     12.38267978	      6.15120750	     -4.93122526	    -26.28990025	     14.49147047	     -2.46471774	     26.88121666	     -3.53278681	     -6.49932375	      3.31308138	    -68.19475897	     13.71234842	      1.66863266	     45.87378576	    -24.71151924	     10.36935513	     -3.43709819
      2.69500000	     10.17623384	     -3.81335263	      8.97800509	      1.00553770	      0.91118762	      0.25659138	     12.05472030	      6.43371932	     -5.12628403	    -26.04755612	     14.71416109	     -2.49038649	     26.50989503	     -2.08545811	     -6.63395392	      3.72374154	    -69.63133981	     13.94327994	      1.40169843	     45.78530198	    -24.54332982	     10.72823536	     -3.48308416
      2.70000000	      9.86242367	     -4.06350155	      9.19492240	      1.01145521	      0.91170187	      0.25658184	     11.90591863	      6.69753749	     -5.24234150	    -25.82566178	     15.00187663	     -2.44959853	     26.10470042	     -0.45034238	     -6.73583237	      4.10214179	    -71.01944417	     14.28405689	      1.00898794	     45.41380610	    -24.21104376	     11.06693086	     -3.56764516
      2.70500000	      9.56842763	     -4.29671700	      9.31137054	      1.01740366	      0.91226597	      0.25668391	     11.71250910	      6.96627939	     -5.26278150	    -25.55985480	     15.30484320	     -2.37618085	     25.49363559	      1.11959925	     -6.80886946	      4.36799373	    -72.29576155	     14.61562218	      0.92574340	     45.37381866	    -23.91324324	     11.34415312	     -3.49478240
      2.71000000	      9.36008978	     -4.51587186	      9.45402489	      1.02351292	      0.91301921	      0.25676472	     11.37142515	      7.22928288	     -5.37836072	    -25.23295876	     15.67794965	     -2.15787804	     23.11469315	      2.55834174	     -6.86784321	      4.65330139	    -73.40855025	     14.90597792	      0.70970933	     44.53600630	    -23.68842617	     11.61975499	     -3.50998128
      2.71500000	      9.12469379	     -4.70643652	      9.59758868	      1.02954624	      0.91370988	      0.25674317	     11.07268591	      7.44315377	     -5.53809112	    -24.91203231	     15.87909668	     -1.98263190	     23.04128169	      4.01145027	     -6.85646949	      4.92820526	    -74.41407334	     15.14886533	      0.45098855	     44.63354162	    -23.44518993	     11.86600165	     -3.51276520
      2.72000000	      8.93203326	     -4.97162883	      9.65642403	      1.03568828	      0.91448542	      0.25701066	     10.61453714	      7.80724538	     -5.49340051	    -24.34636105	     15.98471904	     -1.94776735	     22.54838863	      5.37512403	     -6.99631408	      5.05537415	    -75.26505022	     15.37305005	      0.30543764	     44.48066476	    -23.23900911	     12.13347747	     -3.40341307
      2.72500000	      8.90695072	     -5.23377239	      9.65810655	      1.04199385	      0.91557529	      0.25743867	      9.79570472	      8.23927280	     -5.28441952	    -23.43734681	     15.96792011	     -2.04685618	     22.21882968	      6.49076087	     -7.19446546	      5.08452765	    -75.95929130	     15.75031900	      0.27476972	     44.60644995	    -23.22035105	     12.38321856	     -3.24284756
      2.73000000	      8.87820929	     -5.53689597	      9.65188123	      1.04844756	      0.91667565	      0.25793811	      8.83456698	      8.73872474	     -4.95908770	    -22.23654755	     16.02230183	     -2.19306515	     22.17950640	      7.59770697	     -7.45876337	      5.10334058	    -76.57875086	     16.08955778	      0.24762672	     44.61819533	    -23.18020817	     12.65922957	     -3.04012039
      2.73500000	      8.87615803	     -5.83197200	      9.67259374	      1.05479835	      0.91783557	      0.25830497	      7.84659328	      9.22103846	     -4.59854161	    -21.02281264	     16.01098026	     -2.45860429	     22.33108140	      8.66603815	     -7.71257652	      5.14022164	    -77.10406215	     16.42297388	      0.41994727	     44.60066568	    -23.16465628	     12.94444498	     -2.85688003
      2.74000000	      8.90241331	     -6.03957551	      9.58180365	      1.06116250	      0.91901302	      0.25880732	      6.93394715	      9.61311229	     -4.19565141	    -20.06582673	     15.95668362	     -2.75601307	     22.55865991	      9.60501054	     -7.89512897	      5.05251259	    -77.42844371	     16.91357280	      0.64425896	     44.51344751	    -23.21085531	     13.09374956	     -2.55369304
      2.74500000	      8.89777753	     -6.16610560	      9.46494447	      1.06749475	      0.92008414	      0.25903557	      6.21642873	      9.85613858	     -4.03388190	    -19.48587177	     15.94390144	     -2.77256802	     22.61694526	     10.54464811	     -7.93613996	      4.93709711	    -77.67939088	     17.27833948	      0.78990119	     44.44864914	    -23.22689261	     13.17225590	     -2.20622966
      2.75000000	      8.85102678	     -6.16425685	      9.27410093	      1.07375249	      0.92104844	      0.25926554	      5.69520334	      9.93262144	     -4.02659843	    -19.25235033	     16.06600722	     -2.64643777	     22.52951616	     11.45627859	     -7.82086675	      4.72955866	    -77.80664700	     17.66579222	      0.85494786	     44.30446988	    -23.22947048	     13.09124223	     -1.96897502
      2.75500000	      8.73925023	     -6.13325341	      9.07112114	      1.08010029	      0.92182191	      0.25936303	      5.31167713	      9.92378502	     -4.14842361	    -19.20584937	     16.43140413	     -2.12020725	     21.48111890	     12.41660151	     -7.64987516	      4.51235993	    -77.90141364	     18.16586478	      1.06848842	     43.27129078	    -23.14831020	     12.97615373	     -1.70680464
      2.76000000	      8.81956533	     -6.00344486	      8.82366200	      1.08641482	      0.92298091	      0.25935237	      4.70979282	      9.83546185	     -4.20907525	    -19.16363084	     16.71952229	     -1.57223507	     21.48003416	     13.07661280	     -7.41243235	      4.18536681	    -77.79975673	     18.48734268	      1.10593745	     43.19882401	    -23.30451902	     12.77213416	     -1.37130223
      2.76500000	      8.96514062	     -5.84745642	      8.62409676	      1.09267462	      0.92428133	      0.25919264	      3.99464668	      9.71096580	     -4.37400981	    -19.01795629	     16.99752927	     -0.96935419	     21.37418972	     13.60902747	     -7.11193774	      3.92418798	    -77.54478481	     18.88351580	      1.10600318	     42.99739435	    -23.51352395	     12.57497573	     -1.08853176
      2.77000000	      9.02277782	     -5.92188577	      8.49408008	      1.09903206	      0.92535411	      0.25906523	      3.27994715	      9.84485120	     -4.42696822	    -18.59002984	     17.09772687	     -0.65004816	     21.37077777	     14.31455490	     -7.06579485	      3.75397319	    -77.30920081	     19.25377812	      1.11574823	     42.96502313	    -23.58954917	     12.62102074	     -0.76011769
